<?xml version="1.0" encoding="utf-8"?>
<!-- Generator: Adobe Illustrator 25.2.0, SVG Export Plug-In . SVG Version: 6.00 Build 0)  -->
<svg version="1.1" id="Layer_1" xmlns="http://www.w3.org/2000/svg" xmlns:xlink="http://www.w3.org/1999/xlink" x="0px" y="0px"
	 viewBox="0 0 512 384" style="enable-background:new 0 0 512 384;" xml:space="preserve">
<style type="text/css">
	.st0{fill:#686262;}
</style>
<path class="st0" d="M464,0H48C21.5,0,0,21.5,0,48v288c0,26.5,21.5,48,48,48h416c26.5,0,48-21.5,48-48V48C512,21.5,490.5,0,464,0z
	 M464,48v40.8c-22.4,18.3-58.2,46.7-134.6,106.5c-16.8,13.2-50.2,45.1-73.4,44.7c-23.2,0.4-56.6-31.5-73.4-44.7
	C106.2,135.5,70.4,107.1,48,88.8V48H464z M48,336V150.4c22.9,18.3,55.4,43.9,104.9,82.6c21.9,17.2,60.1,55.2,103.1,55
	c42.7,0.2,80.5-37.2,103.1-54.9c49.5-38.8,82-64.4,104.9-82.7V336H48z"/>
</svg>
